<svg id="Layer_1" xmlns="http://www.w3.org/2000/svg" viewBox="0 0 302.8246 480.7496"><style>.st0{fill:url(#SVGID_1_)}.st1{fill:url(#SVGID_2_)}.st2{fill:url(#SVGID_3_)}.st3{fill:url(#SVGID_4_)}.st4{fill:url(#SVGID_5_)}.st5{fill:url(#SVGID_6_)}.st6{fill:url(#SVGID_7_)}.st7{fill:url(#SVGID_8_)}</style><radialGradient id="SVGID_1_" cx="150.98" cy="126.291" r="206.779" gradientUnits="userSpaceOnUse"><stop offset=".394" stop-color="#ed1c24"/><stop offset=".512" stop-color="#d31b23"/><stop offset=".76" stop-color="#9e111a"/><stop offset="1" stop-color="#6c0007"/></radialGradient><path class="st0" d="M168.475 102.213c11.071-7.85 23.182-13.043 34.1-14.625a48.092 48.092 0 0 1 5.461-.483l.104-.005c.35-.01.618-.013.884-.013.498 0 .99.01 1.478.027l.192.003.177.003c.86.038 1.69.105 2.469.199a.604.604 0 0 0 .575-.932 74.965 74.965 0 0 0-1.403-2.042l-.16-.219-.115-.158a75.183 75.183 0 0 0-1.243-1.68l-.124-.16-.082-.105c-.464-.603-.938-1.2-1.42-1.788l-.086-.103a75.316 75.316 0 0 0-1.614-1.897c-14.18-16.116-34.6-25.359-56.024-25.359S109.798 62.12 95.62 78.234a75.453 75.453 0 0 0-1.615 1.898l-.085.103a74.732 74.732 0 0 0-1.422 1.789l-.081.105-.123.159a74.2 74.2 0 0 0-1.244 1.68l-.116.158-.159.219a75.032 75.032 0 0 0-1.403 2.042.604.604 0 0 0 .575.932c.78-.094 1.61-.16 2.468-.198l.178-.004.194-.003c.486-.016.978-.027 1.476-.027.266 0 .534.003.805.01l.184.008c1.764.052 3.6.214 5.46.484 10.919 1.58 23.03 6.775 34.1 14.625 5.21 3.693 9.965 7.818 14.136 12.26a82.04 82.04 0 0 1 2.24 2.47.603.603 0 0 0 .912 0 82.135 82.135 0 0 1 2.24-2.47c4.17-4.443 8.926-8.568 14.135-12.26zm-16.831 7.016c-11.147-17.058-26.437-27.889-43.247-30.644 11.92-12.557 27.236-19.458 43.247-19.458s31.326 6.9 43.246 19.458c-16.81 2.755-32.1 13.586-43.246 30.644z"/><radialGradient id="SVGID_2_" cx="150.98" cy="126.291" r="206.779" gradientUnits="userSpaceOnUse"><stop offset=".394" stop-color="#ed1c24"/><stop offset=".512" stop-color="#d31b23"/><stop offset=".76" stop-color="#9e111a"/><stop offset="1" stop-color="#6c0007"/></radialGradient><path class="st1" d="M145.66 199.454l-.091-.153-.1-.166a37.974 37.974 0 0 1-1.155-1.967l-.085-.164a48.098 48.098 0 0 1-2.311-4.97c-4.09-10.246-5.647-23.331-4.385-36.844.594-6.358 1.789-12.539 3.55-18.372a81.965 81.965 0 0 1 1.02-3.175.604.604 0 0 0-.457-.79 82.012 82.012 0 0 1-3.258-.704c-5.933-1.392-11.883-3.448-17.686-6.112-12.334-5.663-22.887-13.554-29.716-22.22a48.11 48.11 0 0 1-3.15-4.487l-.055-.088a37.472 37.472 0 0 1-1.169-2.051l-.093-.168-.086-.155a33.022 33.022 0 0 1-1.063-2.238.603.603 0 0 0-1.095-.032c-.369.74-.722 1.486-1.066 2.236l-.11.247-.08.18a75.092 75.092 0 0 0-.832 1.916l-.076.185-.051.126a74.79 74.79 0 0 0-.838 2.124l-.047.126c-.292.778-.57 1.56-.836 2.346-6.867 20.337-4.661 42.643 6.051 61.198 10.713 18.555 28.927 31.617 49.973 35.839.815.163 1.631.313 2.45.45l.133.022a74.1 74.1 0 0 0 2.26.336l.134.019.196.027c.692.089 1.384.167 2.078.237l.193.02.27.029a74.935 74.935 0 0 0 2.507.196.603.603 0 0 0 .482-.966 32.895 32.895 0 0 1-1.405-2.037zm-15.382-9.574c-16.835-4.045-30.47-13.858-38.474-27.723-8.006-13.866-9.687-30.58-4.773-47.181 10.792 13.18 27.816 21.006 48.162 22.13-9.2 18.182-10.934 36.839-4.915 52.774z"/><radialGradient id="SVGID_3_" cx="150.98" cy="126.291" r="206.779" gradientUnits="userSpaceOnUse"><stop offset=".394" stop-color="#ed1c24"/><stop offset=".512" stop-color="#d31b23"/><stop offset=".76" stop-color="#9e111a"/><stop offset="1" stop-color="#6c0007"/></radialGradient><path class="st2" d="M222.487 104.085a74.983 74.983 0 0 0-.837-2.347l-.046-.126a74.83 74.83 0 0 0-.839-2.125l-.051-.127-.075-.182a75.496 75.496 0 0 0-.834-1.918l-.078-.178-.11-.247a74.862 74.862 0 0 0-1.067-2.237.603.603 0 0 0-1.095.032 32.97 32.97 0 0 1-1.062 2.237l-.086.156-.094.169a38.208 38.208 0 0 1-1.126 1.984l-.1.156a48.098 48.098 0 0 1-3.148 4.486c-6.829 8.665-17.382 16.556-29.716 22.22-5.802 2.663-11.752 4.72-17.685 6.111a81.973 81.973 0 0 1-3.259.704.603.603 0 0 0-.456.79c.322.93.646 1.94 1.02 3.176 1.76 5.832 2.955 12.013 3.55 18.37 1.262 13.514-.296 26.599-4.385 36.845a48.121 48.121 0 0 1-2.312 4.972l-.048.091c-.37.684-.737 1.309-1.193 2.04l-.098.164-.092.152a33.119 33.119 0 0 1-1.406 2.039.604.604 0 0 0 .52.964 74.77 74.77 0 0 0 2.469-.194l.27-.029.194-.02c.693-.07 1.385-.148 2.076-.237l.197-.027.136-.019c.754-.1 1.507-.213 2.259-.336l.132-.023c.82-.136 1.636-.286 2.45-.449 21.046-4.222 39.26-17.284 49.973-35.84 10.713-18.555 12.918-40.86 6.052-61.197zm-11.465 58.072c-8.005 13.866-21.64 23.678-38.474 27.723 6.018-15.935 4.284-34.592-4.916-52.774 20.346-1.124 37.37-8.95 48.162-22.13 4.914 16.601 3.233 33.316-4.772 47.181z"/><radialGradient id="SVGID_4_" cx="150.98" cy="126.291" r="206.779" gradientUnits="userSpaceOnUse"><stop offset=".394" stop-color="#ed1c24"/><stop offset=".512" stop-color="#d31b23"/><stop offset=".76" stop-color="#9e111a"/><stop offset="1" stop-color="#6c0007"/></radialGradient><path class="st3" d="M151.412 231.728c-39.484 0-70.414 12.063-70.414 27.465 0 11.144 16.122 20.792 42.074 25.18a1.22 1.22 0 1 0 .463-2.394c-16.701-3.63-27.076-10.152-27.076-17.02 0-10.749 25.166-19.828 54.954-19.828s54.953 9.08 54.953 19.827c0 6.869-10.374 13.39-27.075 17.02a1.22 1.22 0 0 0 .463 2.395c25.952-4.388 42.073-14.036 42.073-25.18 0-15.402-30.929-27.465-70.415-27.465z"/><radialGradient id="SVGID_5_" cx="150.98" cy="126.291" r="206.779" gradientUnits="userSpaceOnUse"><stop offset=".394" stop-color="#ed1c24"/><stop offset=".512" stop-color="#d31b23"/><stop offset=".76" stop-color="#9e111a"/><stop offset="1" stop-color="#6c0007"/></radialGradient><path class="st4" d="M46.157 120.51c-8.356-11.874-16.992-17.388-24.305-15.51-10.795 2.764-16.143 20.774-13.958 47.004.056.66.63 1.176 1.29 1.116.66-.04 1.17-.6 1.145-1.262-.626-17.079 3.118-28.747 9.773-30.45 10.415-2.655 25.448 19.462 32.837 48.318 3.686 14.398 5.052 28.453 3.848 39.574-1.143 10.567-4.579 17.34-9.425 18.58-6.652 1.706-15.543-6.728-23.204-22.007a1.22 1.22 0 0 0-2.205 1.042c9.752 21.944 21.715 34.874 31.935 34.874.982 0 1.948-.118 2.894-.36 7.317-1.874 12.24-10.853 13.862-25.282 1.576-14.034-.1-31.7-4.72-49.745-4.62-18.045-11.64-34.343-19.767-45.892z"/><radialGradient id="SVGID_6_" cx="150.98" cy="126.291" r="206.779" gradientUnits="userSpaceOnUse"><stop offset=".394" stop-color="#ed1c24"/><stop offset=".512" stop-color="#d31b23"/><stop offset=".76" stop-color="#9e111a"/><stop offset="1" stop-color="#6c0007"/></radialGradient><path class="st5" d="M280.975 105c-7.327-1.876-15.95 3.634-24.308 15.51-8.126 11.549-15.146 27.847-19.766 45.892-4.62 18.045-6.296 35.71-4.719 49.745 1.622 14.43 6.544 23.407 13.862 25.282a11.65 11.65 0 0 0 2.894.362c10.22-.002 22.183-12.934 31.934-34.877a1.22 1.22 0 0 0-.594-1.598 1.228 1.228 0 0 0-1.612.557c-7.66 15.279-16.569 23.71-23.203 22.007-4.846-1.24-8.283-8.013-9.426-18.579-1.204-11.122.163-25.177 3.85-39.575 7.39-28.86 22.465-50.979 32.836-48.319 6.656 1.704 10.4 13.372 9.772 30.451a1.22 1.22 0 0 0 1.147 1.262c.613.05 1.233-.454 1.288-1.116 2.186-26.23-3.162-44.24-13.955-47.003z"/><radialGradient id="SVGID_7_" cx="150.98" cy="126.291" r="206.779" gradientUnits="userSpaceOnUse"><stop offset=".394" stop-color="#ed1c24"/><stop offset=".512" stop-color="#d31b23"/><stop offset=".76" stop-color="#9e111a"/><stop offset="1" stop-color="#6c0007"/></radialGradient><path class="st6" d="M38.325 77.53c12.726 0 35.697-10.009 56.046-22.968 14.487-9.226 27.154-19.423 35.669-28.712 6.262-6.832 12.978-16.151 9.413-21.75-4.83-7.586-24.837-1.497-41.95 6.73a1.22 1.22 0 0 0 1.021 2.216c15.902-7.001 24.873-7.229 26.706-4.347 1.598 2.508-1.195 8.068-7.469 14.872-6.803 7.377-16.94 15.509-28.543 22.898-11.604 7.39-23.26 13.137-32.822 16.182-8.82 2.808-15.038 2.987-16.636.479-1.834-2.88 2.165-10.912 15.234-22.361a1.22 1.22 0 0 0-1.577-1.862C38.725 50.934 24.747 66.488 29.58 74.074c1.52 2.388 4.584 3.457 8.746 3.457z"/><radialGradient id="SVGID_8_" cx="150.98" cy="126.291" r="206.779" gradientUnits="userSpaceOnUse"><stop offset=".394" stop-color="#ed1c24"/><stop offset=".512" stop-color="#d31b23"/><stop offset=".76" stop-color="#9e111a"/><stop offset="1" stop-color="#6c0007"/></radialGradient><path class="st7" d="M208.442 54.562c14.488 9.225 29.085 16.392 41.102 20.18 4.797 1.51 10.312 2.833 14.924 2.833 3.888 0 7.136-.94 8.766-3.501 4.83-7.586-9.146-23.14-23.838-35.167a1.22 1.22 0 1 0-1.576 1.861c13.068 11.45 17.067 19.482 15.232 22.362-1.6 2.509-7.82 2.327-16.634-.48-9.563-3.044-21.218-8.791-32.822-16.18-25.185-16.04-39.192-32.779-36.013-37.771 1.834-2.88 10.8-2.656 26.705 4.347a1.221 1.221 0 0 0 1.02-2.216c-17.11-8.226-37.116-14.315-41.949-6.73-3.564 5.599 3.152 14.918 9.415 21.75 8.514 9.289 21.18 19.486 35.668 28.712z"/><path d="M7.412 367.896v-36.671c0-5.015 3.947-9.043 8.962-9.043h19.322a9.018 9.018 0 0 1 9.045 9.043v36.67a9.018 9.018 0 0 1-9.045 9.045H16.374c-5.015 0-8.962-4.028-8.962-9.044zm27.462-34.532c0-1.234-.986-2.14-2.22-2.14H19.499c-1.234 0-2.22.906-2.22 2.14v32.395c0 1.233.986 2.137 2.22 2.137h13.155c1.233 0 2.22-.904 2.22-2.138v-32.394zM92.45 376.94h-9.537l-20.72-35.437v35.437h-9.536v-54.758h9.536l20.72 35.6v-35.6h9.538v54.758zm7.919-54.758H140v9.043h-14.88v45.715h-9.867v-45.715H100.37v-9.043zm82.671 54.758h-9.95l-3.947-11.922h-18.5l-3.78 11.922h-9.95l18.5-54.758h9.127l18.5 54.758zm-29.436-20.72h12.662l-6.33-20.884-6.332 20.885zm57.579-.411h-10.36v21.131h-9.867v-54.758h28.696a9.017 9.017 0 0 1 9.043 9.043v15.54c0 4.276-2.878 7.812-6.823 8.798l10.524 21.377H221.54l-10.358-21.131zm7.645-22.445c0-1.234-.986-2.14-2.219-2.14h-15.786v15.542h15.787c1.232 0 2.218-.905 2.218-2.14v-11.262zm31.347 43.576h-9.867v-54.758h9.867v54.758zm7.909-9.044v-36.671c0-5.015 3.947-9.043 8.962-9.043h19.321a9.018 9.018 0 0 1 9.045 9.043v36.67a9.018 9.018 0 0 1-9.044 9.045h-19.322c-5.015 0-8.962-4.028-8.962-9.044zm27.462-34.532c0-1.234-.987-2.14-2.22-2.14H270.17c-1.234 0-2.22.906-2.22 2.14v32.395c0 1.233.986 2.137 2.22 2.137h13.154c1.234 0 2.22-.904 2.22-2.138v-32.394zM16.83 421.375c-5.095-1.556-9.24-4.06-9.24-9.328v-11.829c0-5.268 4.145-9.499 9.413-9.499h18.22a9.472 9.472 0 0 1 9.5 9.5v8.03H34.358v-5.785c0-1.296-1.036-2.246-2.33-2.246H20.284c-1.295 0-2.331.95-2.331 2.246v7.167c0 1.296 1.036 2.158 2.331 2.503 5.096 1.47 9.413 2.592 15.715 4.404 4.922 1.382 8.981 4.059 8.981 9.326v12.867c0 5.268-4.144 9.499-9.412 9.499H16.917a9.47 9.47 0 0 1-9.5-9.5v-7.858H17.78v5.613c0 1.296 1.036 2.245 2.332 2.245h12.176c1.296 0 2.332-.949 2.332-2.245v-8.29c0-1.294-.95-2.072-2.332-2.416-6.563-1.814-9.068-2.505-15.457-4.404zm39.368 17.355v-38.512c0-5.268 4.146-9.499 9.413-9.499h20.292a9.47 9.47 0 0 1 9.499 9.5v38.512a9.47 9.47 0 0 1-9.5 9.499h-20.29c-5.267 0-9.413-4.231-9.413-9.5zm28.842-36.266c0-1.296-1.036-2.246-2.332-2.246H68.892c-1.296 0-2.332.95-2.332 2.246v34.021c0 1.296 1.036 2.246 2.332 2.246h13.816c1.296 0 2.332-.95 2.332-2.246v-34.021zm49.58 25.818h10.364v10.449a9.472 9.472 0 0 1-9.499 9.499h-19.43c-5.266 0-9.411-4.231-9.411-9.5v-38.512c0-5.268 4.145-9.499 9.412-9.499h19.43a9.472 9.472 0 0 1 9.498 9.5v9.93h-10.363v-7.685c0-1.296-1.036-2.245-2.33-2.245h-12.954c-1.296 0-2.332.949-2.332 2.245v34.022c0 1.295 1.036 2.245 2.332 2.245h12.954c1.294 0 2.33-.95 2.33-2.245v-8.204zm49.575 0h10.363v10.449a9.472 9.472 0 0 1-9.499 9.499h-19.43c-5.266 0-9.412-4.231-9.412-9.5v-38.512c0-5.268 4.146-9.499 9.413-9.499h19.43a9.472 9.472 0 0 1 9.498 9.5v9.93h-10.363v-7.685c0-1.296-1.036-2.245-2.33-2.245H168.91c-1.296 0-2.332.949-2.332 2.245v34.022c0 1.295 1.036 2.245 2.332 2.245h12.954c1.294 0 2.33-.95 2.33-2.245v-8.204zm21.583-37.562h34.886v9.498h-24.522v14.248h22.364v9.499h-22.364v14.766h24.522v9.499h-34.886v-57.51zm67.35 35.317h-10.88v22.193h-10.363v-57.51h30.137a9.472 9.472 0 0 1 9.5 9.498v16.32c0 4.49-3.024 8.203-7.168 9.24l11.053 22.451h-11.4l-10.88-22.192zm8.03-23.573c0-1.296-1.036-2.246-2.33-2.246h-16.58v16.32h16.58c1.294 0 2.33-.95 2.33-2.245v-11.83zm-166.473 66.004h8.73v1.242h-7.366v4.122h6.588v1.242h-6.588v4.226h7.45v1.242h-8.814v-12.074zm10.757 10.315l.846-1c1.259 1.138 2.466 1.707 4.14 1.707 1.621 0 2.691-.863 2.691-2.052v-.035c0-1.12-.604-1.76-3.14-2.294-2.777-.604-4.053-1.501-4.053-3.485v-.034c0-1.898 1.673-3.295 3.968-3.295 1.76 0 3.018.5 4.242 1.484l-.793 1.052c-1.12-.914-2.242-1.311-3.485-1.311-1.57 0-2.57.863-2.57 1.95v.034c0 1.138.622 1.776 3.279 2.346 2.69.586 3.931 1.57 3.931 3.415v.034c0 2.07-1.724 3.416-4.122 3.416-1.914 0-3.485-.638-4.934-1.932zm14.758-9.056h-4.053v-1.26h9.487v1.26h-4.054v10.815h-1.38v-10.815zm5.878 9.004h1.586v1.811h-1.586v-1.81zm11.152-8.935l-2.277.707-.327-1.103 2.95-1.018h1v12.16h-1.345v-10.746zm11.796 4.674v-.24c-.76 1.172-1.863 1.914-3.415 1.914-2.485 0-4.209-1.57-4.209-3.743v-.034c0-2.295 1.777-4.106 4.346-4.106 1.381 0 2.398.466 3.174 1.242.914.915 1.502 2.26 1.502 4.675v.034c0 3.83-2.036 6.538-5.02 6.538-1.57 0-2.708-.639-3.727-1.484l.795-1.052c.982.862 1.897 1.293 2.965 1.293 2.329 0 3.59-2.432 3.59-5.036zm-.258-2.224v-.035c0-1.535-1.26-2.743-3.07-2.743-1.813 0-2.898 1.328-2.898 2.83v.034c0 1.535 1.206 2.639 2.965 2.639 1.846 0 3.003-1.345 3.003-2.725zm3.77 2.294v-.035c0-3.38 2.018-6.244 5.123-6.244 3.104 0 5.07 2.83 5.07 6.21v.035c0 3.38-2 6.244-5.104 6.244-3.122 0-5.089-2.829-5.089-6.21zm8.78 0v-.035c0-2.639-1.45-5.002-3.691-5.002-2.26 0-3.676 2.312-3.676 4.968v.034c0 2.639 1.45 5.002 3.71 5.002s3.656-2.328 3.656-4.968zm5.476-4.744l-2.277.707-.328-1.103 2.95-1.018h1v12.16h-1.345v-10.746zM7.418 473.814h92.273v1.383H7.418zm195.715 0h92.273v1.383h-92.273zm96.995-30.994a2.696 2.696 0 1 1 0 5.395 2.696 2.696 0 1 1 0-5.394zm2.216 2.698c0-1.25-.988-2.26-2.216-2.26-1.229 0-2.217 1.01-2.217 2.26 0 1.25.988 2.26 2.217 2.26 1.228 0 2.216-1.01 2.216-2.26zm-3.292-1.563h1.221c.698 0 1.076.298 1.076.923 0 .56-.371.821-.85.872l.9 1.36h-.48l-.871-1.323h-.517v1.323h-.479v-3.155zm.995 1.396c.437 0 .822-.022.822-.495 0-.414-.349-.465-.683-.465h-.655v.96h.516z"/></svg>